<svg width="40" height="40" viewBox="0 0 40 40" fill="none" xmlns="http://www.w3.org/2000/svg">
<path d="M38.9509 30.8579L30.8547 25.4587C29.8273 24.779 28.4501 25.0027 27.6905 25.9726L25.3322 29.0048C25.0291 29.4044 24.4782 29.5204 24.0397 29.2768L23.5911 29.0295C22.104 28.2189 20.2536 27.2098 16.5255 23.4803C12.7974 19.7509 11.7862 17.8991 10.9756 16.4147L10.7297 15.9661C10.4827 15.5278 10.5965 14.9745 10.9963 14.669L14.0264 12.3114C14.996 11.5517 15.2199 10.1749 14.541 9.14714L9.14184 1.051C8.44608 0.00443778 7.0502 -0.309734 5.97309 0.337748L2.58758 2.37143C1.52383 2.99681 0.7434 4.00962 0.409934 5.19765C-0.809182 9.63965 0.107947 17.3059 11.401 28.6002C20.3843 37.5828 27.072 39.9985 31.6687 39.9985C32.7265 40.003 33.7803 39.8654 34.8015 39.5893C35.9898 39.2562 37.0028 38.4757 37.6278 37.4116L39.6635 34.0281C40.3119 32.9508 39.9979 31.5541 38.9509 30.8579ZM38.5149 33.3442L36.4839 36.7297C36.0351 37.4977 35.3066 38.0624 34.4508 38.3055C30.3501 39.4313 23.1859 38.4988 12.3441 27.6571C1.50235 16.8153 0.56991 9.65168 1.69576 5.55033C1.93916 4.69359 2.50454 3.96408 3.27349 3.51462L6.65901 1.48359C7.12636 1.20238 7.73221 1.33869 8.03411 1.79284L10.967 6.19617L13.4287 9.88828C13.7235 10.3341 13.6266 10.9316 13.2061 11.2614L10.1752 13.6191C9.25284 14.3243 8.98944 15.6005 9.55733 16.6133L9.79799 17.0506C10.6499 18.613 11.709 20.5567 15.5758 24.4228C19.4426 28.2889 21.3857 29.3481 22.9474 30.2L23.3853 30.4412C24.398 31.0091 25.6742 30.7457 26.3795 29.8234L28.7371 26.7925C29.0671 26.3722 29.6643 26.2754 30.1103 26.5699L38.2057 31.9691C38.6602 32.2707 38.7965 32.8769 38.5149 33.3442Z" fill="black"/>
<path d="M22.6665 6.67C28.9219 6.67695 33.9912 11.7463 33.9982 18.0017C33.9982 18.3698 34.2966 18.6682 34.6648 18.6682C35.0329 18.6682 35.3313 18.3698 35.3313 18.0017C35.3236 11.0103 29.6579 5.34457 22.6665 5.33691C22.2984 5.33691 22 5.63531 22 6.00346C22 6.3716 22.2984 6.67 22.6665 6.67Z" fill="black"/>
<path d="M22.6665 10.6695C26.7141 10.6743 29.994 13.9543 29.9988 18.0018C29.9988 18.3699 30.2973 18.6683 30.6654 18.6683C31.0335 18.6683 31.3319 18.3699 31.3319 18.0018C31.3263 13.2183 27.45 9.34189 22.6665 9.33643C22.2984 9.33643 22 9.63482 22 10.003C22 10.3711 22.2984 10.6695 22.6665 10.6695Z" fill="black"/>
<path d="M22.6665 14.669C24.5063 14.6712 25.9971 16.1621 25.9994 18.0019C25.9994 18.37 26.2979 18.6684 26.6659 18.6684C27.034 18.6684 27.3325 18.37 27.3325 18.0019C27.3295 15.4262 25.2423 13.3388 22.6665 13.3359C22.2984 13.3359 22 13.6343 22 14.0025C22 14.3706 22.2984 14.669 22.6665 14.669Z" fill="black"/>
</svg>
